<svg width="216" height="64" viewBox="0 0 216 64" fill="none" xmlns="http://www.w3.org/2000/svg">
<g clip-path="url(#clip0)">
<path d="M198.798 -3.61406e-05H17.2096C16.5477 -3.61406e-05 15.8937 -3.61405e-05 15.2336 0.00316386C14.681 0.00636386 14.1328 0.0156599 13.5748 0.0234839C12.3628 0.0361267 11.1535 0.130646 9.95768 0.30622C8.7635 0.485616 7.60673 0.823829 6.52649 1.30942C5.44758 1.79912 4.46174 2.43543 3.60474 3.19528C2.74325 3.95298 2.02513 4.82879 1.47799 5.78902C0.929348 6.74734 0.548916 7.77427 0.349835 8.83433C0.148863 9.89306 0.0407172 10.964 0.02637 12.0375C0.0096191 12.5281 0.00785015 13.0203 -0.000976562 13.5109V50.4937C0.00785015 50.9905 0.0096191 51.4718 0.02637 51.9688C0.0407216 53.0422 0.148867 54.1131 0.349835 55.1718C0.548366 56.2325 0.928821 57.26 1.47799 58.2187C2.02488 59.1758 2.7431 60.0481 3.60474 60.8016C4.45849 61.5648 5.44496 62.2015 6.52649 62.6875C7.60672 63.1744 8.76337 63.5146 9.95768 63.6968C11.1537 63.8709 12.3628 63.9655 13.5748 63.9796C14.1328 63.9905 14.681 63.9968 15.2336 63.9968C15.8937 64 16.5478 64 17.2096 64H198.798C199.447 64 200.106 64 200.755 63.9968C201.305 63.9968 201.869 63.9905 202.419 63.9796C203.629 63.9662 204.835 63.8717 206.029 63.6968C207.227 63.5133 208.388 63.1732 209.473 62.6875C210.554 62.2013 211.54 61.5645 212.393 60.8016C213.252 60.0451 213.972 59.1735 214.525 58.2187C215.07 57.2593 215.447 56.2319 215.643 55.1718C215.844 54.113 215.956 53.0423 215.978 51.9688C215.985 51.4718 215.985 50.9905 215.985 50.4937C215.999 49.9124 215.999 49.3344 215.999 48.7436V15.2578C215.999 14.6718 215.999 14.0906 215.985 13.5109C215.985 13.0203 215.985 12.5281 215.978 12.0375C215.956 10.9638 215.844 9.89314 215.643 8.83427C215.447 7.77482 215.07 6.74797 214.525 5.78896C213.411 3.86428 211.644 2.2976 209.473 1.30928C208.388 0.824872 207.227 0.486749 206.029 0.306076C204.836 0.129728 203.629 0.0351763 202.419 0.0232599C201.869 0.0154519 201.305 0.00607586 200.755 0.00295586C200.106 -0.000244141 199.447 -0.000244141 198.798 -0.000244141V-3.61406e-05Z" fill="#A6A6A6"/>
<path d="M15.0847 62.6034C14.5338 62.6034 13.9962 62.5972 13.4496 62.5863C12.3173 62.5732 11.1876 62.486 10.0699 62.3253C9.02762 62.1664 8.01796 61.8709 7.07419 61.4485C6.13908 61.0295 5.28619 60.4802 4.54818 59.8216C3.79949 59.1707 3.17617 58.4157 2.70292 57.5867C2.22446 56.7523 1.89334 55.8579 1.72109 54.9346C1.53507 53.9426 1.43443 52.9395 1.42003 51.934C1.40856 51.5965 1.39355 50.4727 1.39355 50.4727V13.5041C1.39355 13.5041 1.40954 12.3976 1.42012 12.0725C1.43391 11.0686 1.53396 10.0671 1.71942 9.0766C1.89199 8.15084 2.22337 7.25385 2.70209 6.41668C3.1736 5.58821 3.79346 4.83272 4.53764 4.1795C5.28098 3.52006 6.13661 2.96792 7.07331 2.5432C8.0149 2.12213 9.02265 1.82869 10.0628 1.67272C11.1842 1.51039 12.3178 1.42263 13.454 1.41017L15.0856 1.39062H200.909L202.56 1.41095C203.686 1.42279 204.809 1.50977 205.92 1.67115C206.971 1.82908 207.989 2.12456 208.941 2.54789C210.818 3.40382 212.345 4.75799 213.308 6.42059C213.779 7.25198 214.105 8.14165 214.276 9.05941C214.463 10.058 214.568 11.0674 214.59 12.0796C214.595 12.5328 214.595 13.0196 214.595 13.5041C214.61 14.1042 214.61 14.6754 214.61 15.2513V48.7442C214.61 49.3256 214.61 49.8929 214.595 50.4649C214.595 50.9853 214.595 51.4621 214.588 51.9527C214.567 52.9468 214.464 53.9382 214.279 54.9189C214.11 55.8488 213.781 56.7502 213.303 57.5915C212.826 58.4115 212.206 59.1599 211.466 59.8091C210.728 60.4713 209.873 61.0238 208.936 61.4454C207.986 61.8711 206.97 62.1677 205.92 62.3253C204.802 62.4869 203.673 62.5741 202.54 62.5863C202.011 62.5972 201.456 62.6034 200.918 62.6034L198.957 62.6066L15.0847 62.6034Z" fill="black"/>
<path d="M52.4833 32.4824C52.5005 31.147 52.8552 29.8376 53.5145 28.676C54.1737 27.5145 55.1161 26.5386 56.2538 25.8391C55.531 24.8069 54.5775 23.9574 53.469 23.3581C52.3605 22.7588 51.1275 22.4263 49.868 22.3868C47.1812 22.1048 44.5765 23.9946 43.2073 23.9946C41.8117 23.9946 39.7037 22.4148 37.4337 22.4616C35.9654 22.509 34.5345 22.936 33.2803 23.7008C32.0261 24.4657 30.9914 25.5425 30.277 26.8261C27.1826 32.1836 29.4908 40.0573 32.455 44.3879C33.938 46.5084 35.6713 48.8772 37.9392 48.7932C40.1585 48.7011 40.9873 47.378 43.6662 47.378C46.3202 47.378 47.0979 48.7932 49.4118 48.7397C51.7932 48.7011 53.2936 46.6098 54.7246 44.4691C55.7902 42.9581 56.6101 41.2882 57.1541 39.5211C55.7706 38.9359 54.5899 37.9565 53.7593 36.7048C52.9287 35.4531 52.4849 33.9846 52.4833 32.4824Z" fill="white"/>
<path d="M48.1154 19.5369C49.4138 17.9782 50.0535 15.9747 49.8986 13.9519C47.9149 14.1603 46.0825 15.1084 44.7665 16.6073C44.1231 17.3395 43.6303 18.1914 43.3163 19.1143C43.0023 20.0371 42.8733 21.0128 42.9366 21.9855C43.9288 21.9957 44.9104 21.7807 45.8074 21.3565C46.7045 20.9324 47.4936 20.3102 48.1154 19.5369Z" fill="white"/>
<path d="M80.5365 43.4223H72.9631L71.1443 48.7926H67.9365L75.11 28.9238H78.4428L85.6162 48.7926H82.3537L80.5365 43.4223ZM73.7475 40.9442H79.7507L76.7913 32.2285H76.7085L73.7475 40.9442Z" fill="white"/>
<path d="M101.105 41.5491C101.105 46.0507 98.6959 48.9429 95.06 48.9429C94.139 48.991 93.223 48.7789 92.4169 48.3307C91.6108 47.8824 90.9473 47.2163 90.5022 46.4085H90.4334V53.5835H87.46V34.3054H90.3381V36.7147H90.3928C90.8584 35.9108 91.5331 35.2481 92.3453 34.7971C93.1575 34.3462 94.0768 34.1238 95.0053 34.1538C98.6818 34.1538 101.105 37.06 101.105 41.5491ZM98.0491 41.5491C98.0491 38.6163 96.5334 36.6882 94.2209 36.6882C91.9491 36.6882 90.4209 38.6569 90.4209 41.5491C90.4209 44.4679 91.9491 46.4226 94.2209 46.4226C96.5334 46.4226 98.0491 44.5085 98.0491 41.5491Z" fill="white"/>
<path d="M117.047 41.5491C117.047 46.0507 114.638 48.9429 111.002 48.9429C110.081 48.991 109.165 48.7789 108.359 48.3306C107.553 47.8824 106.889 47.2163 106.444 46.4085H106.375V53.5835H103.402V34.3053H106.28V36.7147H106.335C106.8 35.9108 107.475 35.2481 108.287 34.7971C109.099 34.3462 110.019 34.1238 110.947 34.1538C114.624 34.1538 117.047 37.06 117.047 41.5491ZM113.991 41.5491C113.991 38.6163 112.475 36.6882 110.163 36.6882C107.891 36.6882 106.363 38.6569 106.363 41.5491C106.363 44.4679 107.891 46.4225 110.163 46.4225C112.475 46.4225 113.991 44.5085 113.991 41.5491H113.991Z" fill="white"/>
<path d="M127.586 43.2567C127.806 45.227 129.72 46.5207 132.336 46.5207C134.842 46.5207 136.645 45.2269 136.645 43.4504C136.645 41.9082 135.558 40.9847 132.983 40.3519L130.408 39.7316C126.759 38.8504 125.065 37.1441 125.065 34.3753C125.065 30.9472 128.053 28.5925 132.295 28.5925C136.494 28.5925 139.372 30.9472 139.469 34.3753H136.467C136.287 32.3925 134.648 31.1957 132.253 31.1957C129.858 31.1957 128.219 32.4066 128.219 34.1691C128.219 35.5738 129.265 36.4004 131.826 37.0331L134.015 37.5706C138.092 38.5347 139.786 40.1722 139.786 43.0784C139.786 46.7956 136.825 49.1237 132.115 49.1237C127.709 49.1237 124.734 46.8503 124.542 43.2565L127.586 43.2567Z" fill="white"/>
<path d="M146.206 30.8787V34.3068H148.961V36.6615H146.206V44.6474C146.206 45.888 146.758 46.4662 147.969 46.4662C148.296 46.4605 148.622 46.4375 148.947 46.3974V48.738C148.402 48.8397 147.849 48.8858 147.295 48.8755C144.362 48.8755 143.219 47.7739 143.219 44.9646V36.6615H141.112V34.3068H143.219V30.8787H146.206Z" fill="white"/>
<path d="M150.558 41.5535C150.558 36.9957 153.242 34.1316 157.428 34.1316C161.628 34.1316 164.3 36.9956 164.3 41.5535C164.3 46.1238 161.642 48.9753 157.428 48.9753C153.215 48.9753 150.558 46.1238 150.558 41.5535ZM161.27 41.5535C161.27 38.4269 159.837 36.5816 157.428 36.5816C155.019 36.5816 153.587 38.441 153.587 41.5535C153.587 44.6925 155.019 46.5238 157.428 46.5238C159.837 46.5238 161.27 44.6925 161.27 41.5535H161.27Z" fill="white"/>
<path d="M166.749 34.3052H169.585V36.7708H169.654C169.846 36.0008 170.297 35.3202 170.931 34.8436C171.566 34.367 172.345 34.1234 173.138 34.1536C173.481 34.1524 173.823 34.1897 174.157 34.2646V37.0458C173.724 36.9136 173.273 36.853 172.821 36.8662C172.389 36.8486 171.958 36.9248 171.559 37.0894C171.159 37.254 170.799 37.5032 170.505 37.8198C170.211 38.1365 169.988 38.513 169.853 38.9237C169.718 39.3344 169.674 39.7694 169.722 40.199V48.7911H166.749L166.749 34.3052Z" fill="white"/>
<path d="M187.868 44.5378C187.468 47.1675 184.907 48.9722 181.63 48.9722C177.416 48.9722 174.801 46.1487 174.801 41.619C174.801 37.0753 177.43 34.1284 181.505 34.1284C185.513 34.1284 188.034 36.8815 188.034 41.2737V42.2925H177.802V42.4722C177.755 43.0053 177.822 43.5424 177.998 44.0477C178.174 44.553 178.456 45.0151 178.825 45.4032C179.193 45.7912 179.64 46.0965 180.136 46.2986C180.631 46.5006 181.164 46.595 181.699 46.5753C182.402 46.6411 183.107 46.4784 183.71 46.1113C184.313 45.7442 184.781 45.1923 185.045 44.5378L187.868 44.5378ZM177.816 40.2144H185.059C185.085 39.735 185.013 39.2553 184.845 38.8054C184.678 38.3554 184.419 37.945 184.085 37.5997C183.752 37.2545 183.35 36.982 182.906 36.7992C182.462 36.6165 181.985 36.5275 181.505 36.5378C181.021 36.5349 180.541 36.6279 180.093 36.8115C179.645 36.9951 179.238 37.2656 178.895 37.6074C178.552 37.9492 178.28 38.3556 178.095 38.803C177.91 39.2505 177.815 39.7302 177.816 40.2144V40.2144Z" fill="white"/>
<path d="M73.3723 13.9706C73.9956 13.9258 74.6212 14.02 75.2037 14.2463C75.7863 14.4726 76.3114 14.8253 76.7412 15.2791C77.1709 15.7329 77.4946 16.2765 77.6888 16.8705C77.883 17.4645 77.943 18.0943 77.8644 18.7143C77.8644 21.7643 76.216 23.5175 73.3723 23.5175H69.9238V13.9706H73.3723ZM71.4066 22.1674H73.2066C73.6521 22.194 74.0978 22.1209 74.5115 21.9536C74.9252 21.7862 75.2963 21.5287 75.5979 21.1998C75.8995 20.8708 76.1239 20.4788 76.2549 20.0522C76.3859 19.6257 76.4201 19.1752 76.355 18.7338C76.4154 18.294 76.3777 17.8464 76.2447 17.4229C76.1117 16.9995 75.8867 16.6107 75.5858 16.2844C75.2849 15.9581 74.9156 15.7024 74.5042 15.5356C74.0929 15.3688 73.6498 15.2951 73.2066 15.3197H71.4066V22.1674Z" fill="white"/>
<path d="M79.541 19.9089C79.4957 19.4354 79.5498 18.9577 79.7 18.5064C79.8501 18.0551 80.0929 17.6401 80.4129 17.2881C80.7328 16.9362 81.1227 16.6549 81.5577 16.4625C81.9926 16.2701 82.463 16.1707 82.9386 16.1707C83.4143 16.1707 83.8846 16.2701 84.3196 16.4625C84.7546 16.6549 85.1445 16.9362 85.4644 17.2881C85.7843 17.6401 86.0271 18.0551 86.1773 18.5064C86.3274 18.9577 86.3816 19.4354 86.3363 19.9089C86.3824 20.3828 86.3289 20.8612 86.1792 21.3132C86.0294 21.7653 85.7868 22.181 85.4668 22.5336C85.1468 22.8863 84.7566 23.1681 84.3212 23.361C83.8858 23.5538 83.4148 23.6535 82.9386 23.6535C82.4624 23.6535 81.9915 23.5538 81.5561 23.361C81.1207 23.1681 80.7305 22.8863 80.4105 22.5336C80.0905 22.181 79.8478 21.7653 79.6981 21.3132C79.5483 20.8612 79.4948 20.3828 79.541 19.9089ZM84.8738 19.9089C84.8738 18.3471 84.1722 17.4339 82.941 17.4339C81.705 17.4339 81.0098 18.3471 81.0098 19.9089C81.0098 21.4831 81.7051 22.3893 82.941 22.3893C84.1722 22.3893 84.8738 21.4768 84.8738 19.9089H84.8738Z" fill="white"/>
<path d="M95.3676 23.516H93.8926L92.4035 18.2097H92.291L90.8082 23.516H89.3473L87.3613 16.3113H88.8035L90.0941 21.8089H90.2004L91.6816 16.3113H93.0457L94.527 21.8089H94.6395L95.9238 16.3113H97.3457L95.3676 23.516Z" fill="white"/>
<path d="M99.0176 16.3119H100.386V17.4565H100.493C100.673 17.0454 100.977 16.7008 101.362 16.4707C101.748 16.2406 102.195 16.1365 102.643 16.1729C102.993 16.1465 103.345 16.1994 103.672 16.3275C104 16.4557 104.294 16.6558 104.534 16.9132C104.773 17.1705 104.952 17.4785 105.056 17.8142C105.16 18.1499 105.188 18.5048 105.136 18.8525V23.5165H103.714V19.2096C103.714 18.0518 103.211 17.476 102.16 17.476C101.922 17.4649 101.684 17.5054 101.463 17.5948C101.242 17.6841 101.043 17.8201 100.88 17.9935C100.717 18.1669 100.593 18.3736 100.517 18.5995C100.441 18.8253 100.414 19.0648 100.439 19.3018V23.5166H99.0176L99.0176 16.3119Z" fill="white"/>
<path d="M107.396 13.4988H108.817V23.516H107.396V13.4988Z" fill="white"/>
<path d="M110.795 19.909C110.75 19.4355 110.804 18.9578 110.954 18.5064C111.105 18.0551 111.347 17.6401 111.667 17.2882C111.987 16.9362 112.377 16.655 112.812 16.4625C113.247 16.2701 113.718 16.1707 114.193 16.1707C114.669 16.1707 115.139 16.2701 115.574 16.4625C116.009 16.655 116.399 16.9362 116.719 17.2882C117.039 17.6401 117.282 18.0551 117.432 18.5064C117.582 18.9578 117.637 19.4355 117.591 19.909C117.638 20.383 117.584 20.8613 117.434 21.3134C117.284 21.7654 117.042 22.1811 116.722 22.5338C116.402 22.8864 116.011 23.1682 115.576 23.3611C115.141 23.5539 114.67 23.6535 114.193 23.6535C113.717 23.6535 113.246 23.5539 112.811 23.3611C112.375 23.1682 111.985 22.8864 111.665 22.5338C111.345 22.1811 111.102 21.7654 110.953 21.3134C110.803 20.8613 110.749 20.383 110.795 19.909ZM116.128 19.909C116.128 18.3473 115.427 17.434 114.195 17.434C112.959 17.434 112.264 18.3473 112.264 19.909C112.264 21.4832 112.959 22.3895 114.195 22.3895C115.427 22.3895 116.128 21.477 116.128 19.909H116.128Z" fill="white"/>
<path d="M119.1 21.4769C119.1 20.18 120.065 19.4324 121.779 19.3261L123.731 19.2136V18.5917C123.731 17.8308 123.228 17.4011 122.256 17.4011C121.462 17.4011 120.912 17.6925 120.754 18.2019H119.378C119.523 16.9644 120.687 16.1707 122.321 16.1707C124.128 16.1707 125.146 17.0699 125.146 18.5917V23.5144H123.778V22.5019H123.665C123.437 22.8651 123.116 23.1612 122.736 23.3599C122.356 23.5586 121.93 23.6529 121.501 23.6331C121.199 23.6646 120.893 23.6323 120.604 23.5384C120.315 23.4445 120.048 23.291 119.822 23.0878C119.596 22.8847 119.415 22.6364 119.29 22.3589C119.166 22.0814 119.101 21.781 119.1 21.4769ZM123.731 20.8613V20.2589L121.971 20.3714C120.979 20.4378 120.529 20.7753 120.529 21.4105C120.529 22.0589 121.092 22.4363 121.865 22.4363C122.092 22.4592 122.321 22.4363 122.538 22.369C122.756 22.3016 122.958 22.1912 123.132 22.0442C123.306 21.8973 123.449 21.7168 123.552 21.5136C123.655 21.3104 123.715 21.0885 123.731 20.8613Z" fill="white"/>
<path d="M127.007 19.9105C127.007 17.634 128.177 16.1918 129.997 16.1918C130.448 16.171 130.895 16.2789 131.286 16.5027C131.677 16.7265 131.997 17.0571 132.207 17.4558H132.313V13.4988H133.735V23.516H132.372V22.3777H132.26C132.033 22.7737 131.703 23.1001 131.304 23.3217C130.905 23.5433 130.453 23.6515 129.997 23.6347C128.165 23.6348 127.007 22.1926 127.007 19.9105ZM128.476 19.9105C128.476 21.4387 129.196 22.3582 130.401 22.3582C131.599 22.3582 132.34 21.4254 132.34 19.9168C132.34 18.4152 131.591 17.4691 130.401 17.4691C129.204 17.4691 128.476 18.3949 128.476 19.9105H128.476Z" fill="white"/>
<path d="M139.619 19.9089C139.573 19.4354 139.627 18.9577 139.778 18.5064C139.928 18.0551 140.171 17.6401 140.49 17.2881C140.81 16.9362 141.2 16.6549 141.635 16.4625C142.07 16.2701 142.541 16.1707 143.016 16.1707C143.492 16.1707 143.962 16.2701 144.397 16.4625C144.832 16.6549 145.222 16.9362 145.542 17.2881C145.862 17.6401 146.105 18.0551 146.255 18.5064C146.405 18.9577 146.459 19.4354 146.414 19.9089C146.46 20.3828 146.407 20.8612 146.257 21.3132C146.107 21.7653 145.864 22.181 145.544 22.5336C145.224 22.8863 144.834 23.1681 144.399 23.361C143.963 23.5538 143.492 23.6535 143.016 23.6535C142.54 23.6535 142.069 23.5538 141.634 23.361C141.198 23.1681 140.808 22.8863 140.488 22.5336C140.168 22.181 139.925 21.7653 139.776 21.3132C139.626 20.8612 139.572 20.3828 139.619 19.9089ZM144.951 19.9089C144.951 18.3471 144.25 17.4339 143.019 17.4339C141.783 17.4339 141.087 18.3471 141.087 19.9089C141.087 21.4831 141.783 22.3893 143.019 22.3893C144.25 22.3893 144.951 21.4768 144.951 19.9089Z" fill="white"/>
<path d="M148.323 16.3129H149.692V17.4574H149.798C149.978 17.0464 150.282 16.7018 150.668 16.4717C151.053 16.2416 151.501 16.1375 151.948 16.1738C152.299 16.1475 152.651 16.2003 152.978 16.3285C153.306 16.4566 153.6 16.6568 153.839 16.9142C154.079 17.1715 154.257 17.4795 154.362 17.8152C154.466 18.1509 154.493 18.5058 154.442 18.8535V23.5175H153.02V19.2106C153.02 18.0528 152.517 17.477 151.465 17.477C151.227 17.4659 150.99 17.5064 150.769 17.5957C150.548 17.6851 150.349 17.8211 150.186 17.9945C150.022 18.1679 149.898 18.3746 149.822 18.6004C149.746 18.8262 149.72 19.0658 149.745 19.3028V23.5176H148.323V16.3129Z" fill="white"/>
<path d="M162.472 14.5193V16.3458H164.033V17.5435H162.472V21.2482C162.472 22.0029 162.783 22.3333 163.491 22.3333C163.672 22.3328 163.853 22.3218 164.033 22.3005V23.4849C163.778 23.5306 163.519 23.5549 163.259 23.5576C161.678 23.5576 161.048 23.0013 161.048 21.6122V17.5434H159.904V16.3458H161.048V14.5193H162.472Z" fill="white"/>
<path d="M165.981 13.4988H167.391V17.4691H167.503C167.692 17.0542 168.005 16.7076 168.398 16.4767C168.791 16.2457 169.246 16.1416 169.7 16.1785C170.049 16.1595 170.397 16.2177 170.721 16.349C171.045 16.4803 171.335 16.6813 171.572 16.9379C171.809 17.1944 171.987 17.5001 172.092 17.8331C172.197 18.1661 172.228 18.5183 172.181 18.8644V23.516H170.758V19.2152C170.758 18.0644 170.222 17.4816 169.217 17.4816C168.973 17.4615 168.727 17.4951 168.497 17.58C168.267 17.6649 168.058 17.799 167.886 17.973C167.713 18.147 167.58 18.3566 167.497 18.5872C167.414 18.8179 167.382 19.0639 167.403 19.3081V23.5159H165.982L165.981 13.4988Z" fill="white"/>
<path d="M180.467 21.5692C180.274 22.2277 179.855 22.7972 179.285 23.1783C178.714 23.5593 178.027 23.7276 177.345 23.6536C176.871 23.6661 176.399 23.5752 175.963 23.3871C175.527 23.1991 175.137 22.9184 174.82 22.5646C174.504 22.2108 174.268 21.7923 174.129 21.3382C173.99 20.8841 173.952 20.4052 174.017 19.9348C173.954 19.463 173.993 18.9831 174.131 18.5277C174.269 18.0722 174.504 17.6518 174.819 17.2948C175.134 16.9379 175.522 16.6528 175.957 16.4589C176.392 16.265 176.863 16.1667 177.339 16.1708C179.344 16.1708 180.553 17.5404 180.553 19.8028V20.2989H175.465V20.3786C175.443 20.643 175.476 20.9091 175.563 21.1599C175.65 21.4107 175.788 21.6407 175.968 21.835C176.149 22.0293 176.368 22.1837 176.612 22.2884C176.856 22.393 177.119 22.4455 177.384 22.4426C177.724 22.4834 178.069 22.4222 178.374 22.2667C178.679 22.1111 178.931 21.8683 179.098 21.5692L180.467 21.5692ZM175.465 19.2473H179.105C179.122 19.0055 179.09 18.7627 179.008 18.5343C178.927 18.306 178.798 18.0972 178.631 17.9214C178.464 17.7456 178.262 17.6068 178.038 17.5137C177.814 17.4206 177.573 17.3754 177.331 17.3809C177.085 17.3778 176.841 17.424 176.613 17.5167C176.386 17.6094 176.179 17.7468 176.005 17.9208C175.831 18.0947 175.694 18.3017 175.601 18.5295C175.508 18.7574 175.462 19.0014 175.465 19.2473H175.465Z" fill="white"/>
</g>
<defs>
<clipPath id="clip0">
<rect width="216" height="64" fill="white"/>
</clipPath>
</defs>
</svg>
