<svg width="216" height="64" viewBox="0 0 216 64" fill="none" xmlns="http://www.w3.org/2000/svg">
<path d="M208 0H8C3.58172 0 0 3.5817 0 7.99996V55.9997C0 60.418 3.58172 63.9997 8 63.9997H208C212.418 63.9997 216 60.418 216 55.9997V7.99996C216 3.5817 212.418 0 208 0Z" fill="black"/>
<path d="M208 1.27992C209.782 1.28198 211.49 1.99068 212.75 3.25055C214.009 4.51041 214.718 6.21855 214.72 8.0002V56C214.718 57.7816 214.009 59.4897 212.75 60.7496C211.49 62.0095 209.782 62.7182 208 62.7203H8C6.21832 62.7182 4.51021 62.0095 3.2504 60.7496C1.99059 59.4898 1.28197 57.7816 1.28 56V8.0002C1.28194 6.21852 1.99055 4.51037 3.25037 3.2505C4.51018 1.99063 6.21831 1.28194 8 1.27992H208ZM208 0.000244141H8C5.88018 0.00644907 3.84895 0.851292 2.35 2.35023C0.851052 3.84917 0.00620496 5.88039 0 8.0002L0 56C0.00620496 58.1198 0.851052 60.151 2.35 61.6499C3.84895 63.1489 5.88018 63.9937 8 63.9999H208C210.12 63.9937 212.151 63.1489 213.65 61.6499C215.149 60.151 215.994 58.1198 216 56V8.0002C215.994 5.88039 215.149 3.84917 213.65 2.35023C212.151 0.851292 210.12 0.00644907 208 0.000244141V0.000244141Z" fill="#A6A6A6"/>
<path d="M75.8718 16.3878C75.9009 16.9749 75.8102 17.5618 75.6052 18.1127C75.4002 18.6637 75.0852 19.1671 74.6795 19.5924C74.2247 20.064 73.6755 20.4343 73.0678 20.6791C72.4601 20.9239 71.8076 21.0375 71.1529 21.0127C70.4941 21.0186 69.8407 20.8928 69.2312 20.6426C68.6216 20.3923 68.0683 20.0228 67.6037 19.5556C67.139 19.0885 66.7724 18.5332 66.5255 17.9224C66.2785 17.3115 66.1561 16.6575 66.1655 15.9987C66.1562 15.3399 66.2786 14.6858 66.5256 14.075C66.7726 13.4641 67.1391 12.9088 67.6038 12.4416C68.0684 11.9744 68.6217 11.6048 69.2312 11.3545C69.8407 11.1041 70.494 10.9781 71.1529 10.9838C71.8303 10.9818 72.5009 11.1187 73.1233 11.3862C73.7013 11.6205 74.2158 11.9881 74.6249 12.4589L73.7811 13.3033C73.4595 12.9249 73.0553 12.6253 72.5996 12.4278C72.1439 12.2303 71.649 12.1402 71.1529 12.1643C70.6536 12.1617 70.1589 12.2599 69.6984 12.4531C69.2379 12.6462 68.8212 12.9303 68.4731 13.2883C68.125 13.6463 67.8528 14.0709 67.6726 14.5366C67.4925 15.0023 67.4083 15.4996 67.4249 15.9987C67.413 16.7462 67.6233 17.4804 68.0293 18.1082C68.4352 18.736 69.0184 19.2292 69.7049 19.5251C70.3915 19.821 71.1505 19.9064 71.8856 19.7704C72.6207 19.6344 73.2989 19.2832 73.8342 18.7612C74.3268 18.2304 74.6124 17.5403 74.6388 16.8166H71.1529V15.6635H75.8046C75.8486 15.9024 75.8711 16.1448 75.8718 16.3878V16.3878Z" fill="white" stroke="white" stroke-width="0.319732" stroke-miterlimit="10"/>
<path d="M83.2453 12.3789H78.8734V15.4226H82.8157V16.5758H78.8734V19.6195H83.2453V20.7992H77.6406V11.1992H83.2453V12.3789Z" fill="white" stroke="white" stroke-width="0.319732" stroke-miterlimit="10"/>
<path d="M88.4469 20.7992H87.2125V12.3789H84.5312V11.1992H91.1282V12.3789H88.4469V20.7992Z" fill="white" stroke="white" stroke-width="0.319732" stroke-miterlimit="10"/>
<path d="M95.8984 20.7992V11.1992H97.1302V20.7992H95.8984Z" fill="white" stroke="white" stroke-width="0.319732" stroke-miterlimit="10"/>
<path d="M102.603 20.7992H101.369V12.3789H98.6875V11.1992H105.284V12.3789H102.603V20.7992Z" fill="white" stroke="white" stroke-width="0.319732" stroke-miterlimit="10"/>
<path d="M117.771 19.5578C116.836 20.4894 115.571 21.0126 114.251 21.0126C112.932 21.0126 111.666 20.4894 110.732 19.5578C110.269 19.0896 109.906 18.5333 109.663 17.9218C109.42 17.3103 109.303 16.6563 109.318 15.9985C109.303 15.3407 109.42 14.6867 109.663 14.0752C109.906 13.4637 110.269 12.9074 110.732 12.4392C111.194 11.9772 111.742 11.6108 112.346 11.3611C112.949 11.1113 113.596 10.9831 114.249 10.9836C114.903 10.9842 115.549 11.1136 116.153 11.3645C116.756 11.6153 117.304 11.9826 117.765 12.4454C118.227 12.9124 118.591 13.4675 118.835 14.0778C119.079 14.6882 119.198 15.3413 119.185 15.9985C119.199 16.6562 119.082 17.3102 118.839 17.9216C118.596 18.533 118.233 19.0894 117.771 19.5578V19.5578ZM111.643 18.754C112.335 19.4449 113.273 19.8329 114.25 19.8329C115.228 19.8329 116.166 19.4449 116.858 18.754C117.213 18.3907 117.491 17.9592 117.674 17.4856C117.858 17.012 117.943 16.5061 117.926 15.9985C117.943 15.4909 117.858 14.985 117.674 14.5114C117.491 14.0378 117.213 13.6063 116.858 13.243C116.166 12.5521 115.228 12.1641 114.25 12.1641C113.273 12.1641 112.335 12.5521 111.643 13.243C111.288 13.6066 111.011 14.0382 110.828 14.5118C110.645 14.9853 110.559 15.4911 110.577 15.9985C110.559 16.5059 110.645 17.0117 110.828 17.4852C111.011 17.9588 111.288 18.3904 111.643 18.754V18.754Z" fill="white" stroke="white" stroke-width="0.319732" stroke-miterlimit="10"/>
<path d="M120.922 20.7992V11.1992H122.423L127.089 18.6672H127.142L127.089 16.8171V11.1992H128.323V20.7992H127.036L122.155 12.9694H122.102L122.155 14.8195V20.7992H120.922Z" fill="white" stroke="white" stroke-width="0.319732" stroke-miterlimit="10"/>
<path d="M109.02 34.8023C107.675 34.8073 106.362 35.2108 105.246 35.9616C104.131 36.7125 103.262 37.7771 102.751 39.021C102.24 40.2649 102.109 41.6323 102.375 42.9507C102.64 44.269 103.29 45.4792 104.243 46.4283C105.196 47.3774 106.408 48.023 107.728 48.2834C109.047 48.5439 110.414 48.4076 111.656 47.8918C112.898 47.376 113.959 46.5037 114.706 45.3852C115.452 44.2667 115.851 42.952 115.851 41.6072C115.864 40.7077 115.696 39.8147 115.357 38.9815C115.018 38.1482 114.515 37.3916 113.878 36.7567C113.241 36.1218 112.482 35.6216 111.648 35.2858C110.813 34.9501 109.919 34.7856 109.02 34.8023V34.8023ZM109.02 45.7315C108.192 45.7905 107.365 45.5989 106.647 45.1814C105.929 44.764 105.354 44.1402 104.996 43.3911C104.638 42.6421 104.513 41.8026 104.639 40.9818C104.764 40.1611 105.134 39.3972 105.7 38.7895C106.266 38.1819 107.001 37.7587 107.811 37.575C108.621 37.3913 109.467 37.4557 110.24 37.7597C111.012 38.0638 111.676 38.5934 112.143 39.2796C112.611 39.9658 112.861 40.7769 112.861 41.6072C112.886 42.1317 112.806 42.656 112.625 43.1491C112.445 43.6423 112.167 44.0943 111.809 44.4786C111.451 44.8629 111.02 45.1717 110.541 45.3869C110.062 45.6021 109.545 45.7192 109.02 45.7315V45.7315ZM94.1185 34.8023C92.7737 34.8073 91.4605 35.2107 90.3448 35.9616C89.2291 36.7124 88.3608 37.777 87.8497 39.0209C87.3386 40.2648 87.2075 41.6322 87.4729 42.9506C87.7384 44.269 88.3886 45.4791 89.3413 46.4282C90.294 47.3774 91.5066 48.0229 92.826 48.2834C94.1453 48.5439 95.5123 48.4077 96.7543 47.8918C97.9963 47.376 99.0575 46.5038 99.8042 45.3852C100.551 44.2667 100.949 42.952 100.949 41.6072C100.962 40.7077 100.795 39.8148 100.456 38.9815C100.117 38.1482 99.6137 37.3916 98.9764 36.7567C98.3391 36.1219 97.5806 35.6216 96.746 35.2859C95.9115 34.9501 95.0179 34.7856 94.1185 34.8023V34.8023ZM94.1185 45.7315C93.2903 45.7905 92.4635 45.5989 91.7457 45.1814C91.028 44.764 90.4526 44.1402 90.0943 43.3911C89.7361 42.6421 89.6117 41.8026 89.7373 40.9818C89.8629 40.1611 90.2327 39.3972 90.7985 38.7895C91.3644 38.1819 92.1 37.7587 92.9098 37.575C93.7195 37.3913 94.5658 37.4557 95.3384 37.7597C96.1111 38.0638 96.7743 38.5934 97.2417 39.2796C97.7091 39.9658 97.9591 40.7769 97.9591 41.6072C97.9843 42.1317 97.9042 42.656 97.7237 43.1491C97.5431 43.6423 97.2658 44.0943 96.9079 44.4786C96.55 44.8629 96.1188 45.1718 95.6398 45.3869C95.1607 45.6021 94.6435 45.7192 94.1185 45.7315ZM76.3924 36.8902V39.7771H83.3007C83.201 41.1312 82.6469 42.4119 81.7282 43.4117C81.036 44.1173 80.2034 44.67 79.2844 45.034C78.3653 45.3981 77.3801 45.5654 76.3924 45.5252C74.3732 45.4979 72.4459 44.6766 71.0277 43.239C69.6094 41.8014 68.8143 39.8632 68.8143 37.8438C68.8143 35.8244 69.6094 33.8862 71.0277 32.4487C72.4459 31.0111 74.3732 30.1898 76.3924 30.1624C78.3319 30.1371 80.2031 30.8781 81.5994 32.2245L83.6358 30.1882C82.6831 29.245 81.5516 28.5015 80.3078 28.0014C79.064 27.5012 77.7329 27.2544 76.3924 27.2754C74.9916 27.255 73.6007 27.5133 72.3006 28.0353C71.0005 28.5572 69.8171 29.3324 68.8193 30.3158C67.8215 31.2992 67.0291 32.4712 66.4883 33.7635C65.9475 35.0559 65.6689 36.4429 65.6689 37.8438C65.6689 39.2448 65.9475 40.6318 66.4883 41.9241C67.0291 43.2165 67.8215 44.3884 68.8193 45.3718C69.8171 46.3552 71.0005 47.1304 72.3006 47.6524C73.6007 48.1744 74.9916 48.4327 76.3924 48.4123C77.7611 48.469 79.1263 48.2341 80.3973 47.723C81.6683 47.212 82.8161 46.4364 83.7646 45.448C85.4484 43.61 86.3459 41.1859 86.265 38.6946C86.2716 38.0895 86.2198 37.4853 86.1102 36.8902H76.3924ZM148.886 39.1326C148.477 37.9 147.698 36.8232 146.656 36.0485C145.614 35.2737 144.358 34.8386 143.06 34.8023C142.186 34.8077 141.322 34.9903 140.52 35.3392C139.718 35.6881 138.995 36.1959 138.395 36.832C137.796 37.468 137.331 38.2191 137.029 39.0399C136.728 39.8607 136.596 40.734 136.642 41.6072C136.622 42.5019 136.783 43.3913 137.115 44.2225C137.446 45.0536 137.942 45.8094 138.573 46.4446C139.203 47.0797 139.955 47.5814 140.784 47.9195C141.612 48.2575 142.5 48.4251 143.395 48.4123C144.516 48.4185 145.621 48.1462 146.611 47.6198C147.601 47.0934 148.444 46.3294 149.066 45.3964L146.746 43.8499C146.399 44.4271 145.907 44.904 145.32 45.2338C144.732 45.5637 144.069 45.7352 143.395 45.7315C142.702 45.758 142.017 45.5756 141.428 45.2079C140.84 44.8402 140.376 44.3042 140.096 43.6694L149.195 39.9061L148.886 39.1326ZM139.606 41.4011C139.574 40.9058 139.641 40.4091 139.803 39.94C139.966 39.471 140.22 39.039 140.551 38.6694C140.882 38.2997 141.284 37.9999 141.732 37.7873C142.181 37.5748 142.667 37.4538 143.163 37.4315C143.679 37.3976 144.194 37.5163 144.644 37.773C145.093 38.0297 145.456 38.413 145.689 38.875L139.606 41.4011ZM132.208 47.9998H135.198V27.9973H132.208V47.9998ZM127.31 36.323H127.207C126.753 35.8291 126.198 35.438 125.58 35.1757C124.962 34.9135 124.295 34.7861 123.624 34.8023C121.87 34.8769 120.212 35.6265 118.996 36.8945C117.781 38.1626 117.103 39.851 117.103 41.6073C117.103 43.3636 117.781 45.052 118.996 46.32C120.212 47.588 121.87 48.3376 123.624 48.4123C124.298 48.4302 124.968 48.3011 125.586 48.034C126.205 47.767 126.758 47.3683 127.207 46.8657H127.31V47.8452C127.31 50.4487 125.919 51.8406 123.676 51.8406C122.929 51.8227 122.203 51.5827 121.593 51.1512C120.982 50.7196 120.514 50.1161 120.248 49.4175L117.644 50.5003C118.135 51.6949 118.971 52.7159 120.046 53.4323C121.12 54.1487 122.384 54.5279 123.676 54.5214C127.182 54.5214 130.146 52.4593 130.146 47.4328V35.2146H127.31V36.323ZM123.882 45.7315C122.849 45.6438 121.886 45.1714 121.184 44.4076C120.482 43.6439 120.093 42.6445 120.093 41.6073C120.093 40.5701 120.482 39.5707 121.184 38.8069C121.886 38.0431 122.849 37.5707 123.882 37.483C124.396 37.5081 124.9 37.6365 125.364 37.8605C125.827 38.0845 126.241 38.3995 126.58 38.7868C126.919 39.174 127.177 39.6256 127.338 40.1146C127.499 40.6036 127.56 41.12 127.517 41.6329C127.557 42.1427 127.494 42.6554 127.331 43.1403C127.169 43.6252 126.91 44.0723 126.571 44.4549C126.232 44.8376 125.819 45.1478 125.357 45.3672C124.895 45.5865 124.393 45.7104 123.882 45.7315V45.7315ZM162.892 27.9976H155.738V47.9998H158.723V40.4216H162.892C163.736 40.4679 164.581 40.3415 165.375 40.0503C166.169 39.759 166.895 39.3089 167.51 38.7275C168.124 38.1462 168.613 37.4457 168.947 36.6689C169.281 35.8921 169.454 35.0553 169.454 34.2096C169.454 33.3639 169.281 32.5272 168.947 31.7504C168.613 30.9736 168.124 30.2731 167.51 29.6917C166.895 29.1103 166.169 28.6602 165.375 28.369C164.581 28.0777 163.736 27.9514 162.892 27.9976V27.9976ZM162.969 37.6379H158.723V30.7815H162.969C163.425 30.772 163.879 30.8537 164.303 31.0217C164.727 31.1898 165.114 31.4408 165.439 31.7601C165.765 32.0793 166.024 32.4605 166.201 32.8811C166.378 33.3017 166.469 33.7534 166.469 34.2097C166.469 34.666 166.378 35.1177 166.201 35.5383C166.024 35.9589 165.765 36.34 165.439 36.6593C165.114 36.9786 164.727 37.2296 164.303 37.3976C163.879 37.5657 163.425 37.6474 162.969 37.6379V37.6379ZM181.42 34.7655C180.33 34.7018 179.246 34.9577 178.299 35.5017C177.353 36.0457 176.586 36.8541 176.093 37.8277L178.743 38.9342C179.006 38.451 179.404 38.0549 179.889 37.7943C180.373 37.5338 180.923 37.4202 181.471 37.4674C182.228 37.3934 182.984 37.6228 183.573 38.1051C184.161 38.5875 184.534 39.2835 184.611 40.0406V40.2465C183.652 39.7372 182.582 39.4721 181.497 39.4745C178.641 39.4745 175.733 41.0443 175.733 43.9779C175.76 44.5961 175.912 45.2025 176.179 45.761C176.445 46.3195 176.821 46.8188 177.285 47.2292C177.748 47.6397 178.289 47.9528 178.875 48.1502C179.462 48.3476 180.082 48.4251 180.699 48.3782C181.451 48.4224 182.201 48.2643 182.87 47.9204C183.54 47.5764 184.106 47.0592 184.508 46.4225H184.611V47.9665H187.493V40.2981C187.493 36.7469 184.842 34.7655 181.42 34.7655V34.7655ZM181.059 45.7276C180.082 45.7276 178.718 45.2388 178.718 44.0292C178.718 42.4854 180.416 41.8934 181.883 41.8934C182.836 41.868 183.778 42.0991 184.611 42.5625C184.501 43.4301 184.081 44.2287 183.428 44.8105C182.775 45.3923 181.934 45.7181 181.059 45.7276V45.7276ZM197.992 35.2029L194.569 43.8748H194.466L190.915 35.2029H187.699L193.025 47.3232L189.989 54.0652H193.102L201.311 35.2029H197.992ZM171.101 47.9998H174.086V27.9976H171.101V47.9998Z" fill="white"/>
<path d="M16.6984 12.0615C16.1738 12.6888 15.9089 13.493 15.958 14.3093V49.6949C15.9087 50.5112 16.1737 51.3155 16.6984 51.9427L16.8168 52.0581L36.6393 32.2359V31.7683L16.8168 11.9453L16.6984 12.0615Z" fill="url(#paint0_linear)"/>
<path d="M43.2408 38.8459L36.6338 32.2357V31.768L43.2424 25.1594L43.3914 25.2444L51.2199 29.6925C53.456 30.9629 53.456 33.0416 51.2199 34.3128L43.3914 38.761L43.2408 38.8459Z" fill="url(#paint1_linear)"/>
<path d="M43.3898 38.7582L36.6322 32L16.6914 51.9405C17.147 52.3424 17.7289 52.5722 18.3361 52.5901C18.9434 52.6081 19.5378 52.413 20.0164 52.0388L43.3898 38.7582Z" fill="url(#paint2_linear)"/>
<path d="M43.3898 25.2422L20.0164 11.9617C19.5378 11.5874 18.9434 11.3924 18.3361 11.4103C17.7289 11.4283 17.147 11.6581 16.6914 12.0599L36.6322 32.0006L43.3898 25.2422Z" fill="url(#paint3_linear)"/>
<path opacity="0.2" d="M43.2408 38.6094L20.0164 51.805C19.5562 52.1553 18.9946 52.3464 18.4163 52.3495C17.8381 52.3526 17.2745 52.1675 16.8106 51.8221L16.6914 51.9413L16.8098 52.0567L16.8106 52.0559C17.2744 52.4014 17.838 52.5866 18.4163 52.5835C18.9947 52.5804 19.5563 52.3892 20.0164 52.0387L43.3898 38.7582L43.2408 38.6094Z" fill="black"/>
<path opacity="0.12" d="M16.6983 51.7083C16.1741 51.0809 15.9094 50.2768 15.9584 49.4604V49.6942C15.9094 50.5105 16.1741 51.3147 16.6983 51.942L16.8174 51.8228L16.6983 51.7083Z" fill="black"/>
<path opacity="0.12" d="M51.2235 34.0757L43.2461 38.6088L43.3951 38.7576L51.2235 34.3094C51.684 34.1096 52.0825 33.7899 52.3775 33.3837C52.6725 32.9776 52.8532 32.4997 52.9008 32C52.8018 32.4526 52.5987 32.8758 52.3075 33.2361C52.0164 33.5964 51.6452 33.8839 51.2235 34.0757V34.0757Z" fill="black"/>
<path opacity="0.25" d="M20.0225 12.1981L51.2244 29.926C51.6462 30.1178 52.0175 30.4054 52.3087 30.7658C52.5999 31.1263 52.8029 31.5498 52.9017 32.0025C52.8544 31.5026 52.6738 31.0245 52.3788 30.6181C52.0838 30.2118 51.6851 29.892 51.2244 29.6923L20.0225 11.9644C17.7863 10.6938 15.957 11.7492 15.957 14.3104V14.5442C15.957 11.9831 17.7863 10.9277 20.0225 12.1981Z" fill="white"/>
<defs>
<linearGradient id="paint0_linear" x1="34.8814" y1="13.9362" x2="8.02967" y2="40.7881" gradientUnits="userSpaceOnUse">
<stop stop-color="#00A0FF"/>
<stop offset="0.00657" stop-color="#00A1FF"/>
<stop offset="0.2601" stop-color="#00BEFF"/>
<stop offset="0.5122" stop-color="#00D2FF"/>
<stop offset="0.7604" stop-color="#00DFFF"/>
<stop offset="1" stop-color="#00E3FF"/>
</linearGradient>
<linearGradient id="paint1_linear" x1="54.1313" y1="32.0027" x2="15.4163" y2="32.0027" gradientUnits="userSpaceOnUse">
<stop stop-color="#FFE000"/>
<stop offset="0.4087" stop-color="#FFBD00"/>
<stop offset="0.7754" stop-color="#FFA500"/>
<stop offset="1" stop-color="#FF9C00"/>
</linearGradient>
<linearGradient id="paint2_linear" x1="39.7179" y1="35.6721" x2="3.30482" y2="72.0854" gradientUnits="userSpaceOnUse">
<stop stop-color="#FF3A44"/>
<stop offset="1" stop-color="#C31162"/>
</linearGradient>
<linearGradient id="paint3_linear" x1="11.6705" y1="0.281056" x2="27.9304" y2="16.5411" gradientUnits="userSpaceOnUse">
<stop stop-color="#32A071"/>
<stop offset="0.0685" stop-color="#2DA771"/>
<stop offset="0.4762" stop-color="#15CF74"/>
<stop offset="0.8009" stop-color="#06E775"/>
<stop offset="1" stop-color="#00F076"/>
</linearGradient>
</defs>
</svg>
